<svg width="24" height="25" viewBox="0 0 24 25" fill="none" xmlns="http://www.w3.org/2000/svg">
<path fill-rule="evenodd" clip-rule="evenodd" d="M0.297044 4.86684L0.148438 5.31266L0.297044 6.12999L0.705711 6.57581L10.2165 10.6253L11.4425 11.034L12.2227 11.1083L12.78 11.034L13.6159 10.7368L14.4518 10.4396L23.2196 6.57581L23.8511 6.12999L23.9998 5.53557L23.8511 5.0526L23.5539 4.53248L22.9224 4.19811L13.4116 0.185757L12.5571 0H11.814H11.0339L10.328 0.185757L1.41159 4.19811L0.705711 4.53248L0.297044 4.86684Z" fill="#2CFF05"/>
<path d="M5.90693 7.02139L7.91312 6.24121L8.58185 8.06163L1.89456 11.1824L10.4766 15.0461L11.9255 15.3062H12.9286L13.7088 15.0461L22.2165 11.1824L16.718 8.65606L16.458 8.35884L15.4549 8.06163L14.5633 7.43006L18.5756 7.20715L22.3651 9.06472L23.2939 9.54769L23.814 10.1793L23.9998 10.9594V11.7768L23.814 12.557L23.4425 13.2257L22.7738 13.7458L16.0493 16.8665L14.5633 17.4981L13.7088 17.7953L12.78 17.9439H11.6283L10.6252 17.7953L9.88215 17.4981L2.26608 14.1545L1.44874 13.7458L0.891469 13.2257L0.408499 12.557L0.148438 11.7768V10.9594L0.408499 10.1793L0.891469 9.54769L1.59735 9.06472L4.49517 7.69012L4.90384 7.43006L5.1639 7.20715L5.90693 7.02139Z" fill="#2CFF05"/>
<path d="M10.3281 19.4304L1.74612 15.6038L0.631577 16.1982L0.185758 16.9041L0 17.7214L0.185758 19.0217L0.631577 19.6161L1.44891 20.322L10.7368 24.4087H13.0402L14.1548 24.0371L18.9845 21.9195L23.1826 19.9133L23.5913 19.4304L23.9628 18.6502V16.9041L23.5913 16.3468L23.1826 15.901L22.6996 15.6038H22.2166L13.6718 19.4304L13.0402 19.6161L11.9257 19.9133L10.8483 19.6161L10.3281 19.4304Z" fill="#2CFF05"/>
</svg>
