<svg width="323" height="329" viewBox="0 0 323 329" fill="none" xmlns="http://www.w3.org/2000/svg">
<path fill-rule="evenodd" clip-rule="evenodd" d="M4 65.5L2 71.5L4 82.5L9.5 88.5L137.5 143L154 148.5L164.5 149.5L172 148.5L183.25 144.5L194.5 140.5L312.5 88.5L321 82.5L323 74.5L321 68L317 61L308.5 56.5L180.5 2.5L169 0H159H148.5L139 2.5L19 56.5L9.5 61L4 65.5Z" fill="#2CFF05"/>
<path d="M79.5 94.5L106.5 84L115.5 108.5L25.5 150.5L141 202.5L160.5 206H174L184.5 202.5L299 150.5L225 116.5L221.5 112.5L208 108.5L196 100L250 97L301 122L313.5 128.5L320.5 137L323 147.5V158.5L320.5 169L315.5 178L306.5 185L216 227L196 235.5L184.5 239.5L172 241.5H156.5L143 239.5L133 235.5L30.5 190.5L19.5 185L12 178L5.5 169L2 158.5V147.5L5.5 137L12 128.5L21.5 122L60.5 103.5L66 100L69.5 97L79.5 94.5Z" fill="#2CFF05"/>
<path d="M139 261.5L23.5 210L8.5 218L2.5 227.5L0 238.5L2.5 256L8.5 264L19.5 273.5L144.5 328.5H175.5L190.5 323.5L255.5 295L312 268L317.5 261.5L322.5 251V227.5L317.5 220L312 214L305.5 210H299L184 261.5L175.5 264L160.5 268L146 264L139 261.5Z" fill="#2CFF05"/>
</svg>

